<?xml version="1.0" standalone="no"?>
<!DOCTYPE svg PUBLIC "-//W3C//DTD SVG 20010904//EN"
 "http://www.w3.org/TR/2001/REC-SVG-20010904/DTD/svg10.dtd">
<svg version="1.0" xmlns="http://www.w3.org/2000/svg"
 width="500.000000pt" height="500.000000pt" viewBox="0 0 500.000000 500.000000"
 preserveAspectRatio="xMidYMid meet">
<metadata>
Created by potrace 1.14, written by Peter Selinger 2001-2017
</metadata>
<g transform="translate(0.000000,500.000000) scale(0.100000,-0.100000)"
fill="#000000" stroke="none">
<path d="M2215 4394 c-33 -6 -96 -16 -140 -23 -44 -7 -127 -28 -185 -48 -58
-19 -112 -37 -120 -38 -8 -2 -16 -4 -17 -5 -2 -2 -6 -3 -10 -4 -5 -1 -30 -13
-58 -26 -27 -13 -52 -24 -55 -25 -20 -6 -128 -62 -138 -72 -7 -7 -20 -13 -28
-13 -8 0 -14 -4 -14 -9 0 -5 -8 -12 -18 -16 -18 -5 -108 -68 -142 -97 -8 -8
-40 -33 -70 -56 -30 -23 -70 -57 -89 -77 -19 -19 -37 -35 -42 -35 -4 0 -10 -8
-13 -18 -4 -11 -18 -25 -31 -32 -14 -7 -25 -18 -25 -23 0 -5 -8 -17 -18 -26
-9 -9 -35 -38 -57 -66 -22 -27 -43 -51 -47 -53 -5 -2 -8 -8 -8 -14 0 -5 -6
-16 -12 -23 -24 -27 -34 -40 -41 -55 -4 -8 -16 -28 -27 -45 -11 -16 -27 -43
-36 -60 -9 -16 -21 -33 -26 -36 -5 -3 -9 -9 -8 -13 2 -7 -40 -96 -50 -106 -3
-3 -6 -11 -7 -17 -2 -7 -4 -19 -5 -25 -2 -7 -6 -16 -11 -19 -8 -6 -77 -199
-71 -199 2 0 -1 -12 -7 -27 -12 -31 -19 -58 -24 -90 -2 -12 -8 -37 -13 -55 -6
-18 -13 -55 -17 -83 -4 -27 -9 -66 -12 -85 -9 -55 -9 -338 -1 -405 15 -122 31
-210 41 -222 5 -7 7 -13 4 -13 -3 0 0 -20 7 -45 8 -25 13 -45 11 -45 -2 0 14
-51 36 -112 57 -162 171 -389 229 -455 5 -7 10 -15 10 -18 0 -7 14 -24 48 -60
13 -14 20 -25 17 -25 -6 0 23 -34 110 -128 94 -102 205 -202 224 -202 7 0 10
-4 7 -8 -3 -4 10 -16 29 -26 19 -10 36 -25 39 -32 3 -8 12 -14 21 -14 8 0 15
-4 15 -8 0 -5 18 -17 40 -27 23 -10 44 -24 48 -30 7 -10 250 -135 264 -135 4
0 19 -5 35 -12 15 -6 30 -12 33 -13 3 -1 12 -4 20 -8 52 -20 139 -47 153 -47
9 0 17 -3 17 -7 0 -5 10 -8 23 -9 12 -1 40 -4 62 -8 22 -4 51 -8 65 -10 14 -2
27 -5 30 -6 3 -1 20 -2 38 -2 17 0 32 -3 32 -7 0 -9 419 -6 460 4 19 4 49 9
65 11 17 1 30 3 30 4 0 1 14 4 30 6 111 16 244 54 273 77 7 5 15 7 19 4 3 -4
12 -2 20 4 7 6 13 8 13 4 0 -4 6 -2 13 4 8 6 32 17 54 25 63 22 153 68 153 78
0 5 4 7 9 3 5 -3 12 -1 16 5 4 6 11 8 16 5 5 -4 9 -1 9 5 0 6 12 16 28 23 15
6 29 15 32 18 3 4 12 9 19 11 8 2 22 10 31 18 39 34 60 49 60 42 0 -4 4 -2 8
3 4 6 27 26 52 45 113 87 261 235 340 339 14 18 34 45 45 59 31 41 75 111 74
118 0 4 5 10 13 15 7 5 14 12 14 16 4 24 17 53 24 53 7 0 90 171 90 185 0 3
11 30 23 58 13 29 34 90 46 137 12 47 25 92 28 100 3 8 7 24 8 35 2 11 6 36
10 55 47 237 45 593 -5 724 -5 13 -6 26 -3 30 3 3 2 13 -2 23 -4 10 -9 25 -10
33 -5 25 -13 52 -33 118 -11 34 -18 62 -16 62 2 0 -7 22 -20 49 -14 27 -22 51
-19 55 4 3 1 6 -6 6 -7 0 -9 5 -6 10 3 6 1 10 -6 10 -7 0 -10 3 -6 6 3 4 0 19
-9 35 -8 16 -14 30 -13 31 2 2 -4 14 -11 28 -8 14 -13 28 -12 33 1 4 -1 7 -6
7 -4 0 -16 17 -27 38 -11 20 -22 39 -25 42 -3 3 -12 18 -20 35 -8 16 -22 38
-30 48 -8 10 -14 20 -12 23 1 2 -9 15 -23 28 -14 13 -25 28 -25 35 0 6 -3 11
-8 11 -4 0 -14 11 -22 24 -39 62 -220 250 -290 301 -19 14 -40 31 -45 38 -16
18 -73 57 -85 57 -6 0 -8 5 -5 10 3 6 1 10 -5 10 -9 0 -88 47 -100 60 -3 3
-31 19 -63 35 -32 16 -60 33 -63 37 -3 4 -14 8 -25 8 -10 0 -19 4 -19 10 0 5
-3 9 -7 8 -5 -1 -28 8 -53 19 -25 12 -65 28 -88 35 -23 7 -42 15 -42 18 0 3
-12 7 -27 8 -15 1 -29 6 -32 11 -3 4 -14 7 -23 5 -10 -1 -18 1 -18 5 0 4 -6 8
-12 9 -29 4 -55 9 -93 20 -140 40 -535 61 -670 36z"/>
</g>
</svg>
